<svg xmlns="http://www.w3.org/2000/svg" viewBox="0 0 415 173">
  <path d="M181.82,76.121445 C181.26,73.181445 180.82,70.221445 180.31,67.271445 C179.83,64.501445 178.02,63.021445 175.17,63.271445 C169.34,63.821445 163.52,64.481445 157.7,65.091445 C154.92,65.371445 152.14,65.701445 149.36,65.891445 C146.58,66.081445 144.7,65.051445 143.75,62.681445 C141.35,56.731445 139.01,50.751445 136.58,44.621445 C137.84,44.391445 139.43,44.071445 141.04,43.801445 C144.71,43.181445 148.37,42.481445 152.04,42.021445 C153.57,41.821445 154.18,41.131445 154.24,39.761445 C154.35,37.581445 154.38,35.381445 154.46,33.201445 C154.46,31.961445 154.46,29.401445 153.67,29.111445 C152.88,28.821445 16.168179,48.795599 6.40817901,50.785599 C2.76817901,51.525599 2.25,58.591445 1.81,62.721445 C0.13,78.331445 1.34,93.871445 2.47,109.431445 C2.6,111.201445 2.29,113.011445 2.47,114.751445 C4.36,129.101445 6.26,143.451445 8.31,157.751445 C8.7838372,161.103322 9.56718452,164.404093 10.65,167.611445 C11.75,170.821445 13.01,172.661445 15.52,173.611445 L176.82,173.611445 C176.99,173.421445 177.16,173.221445 177.34,173.031445 C177.554524,172.596456 177.554524,172.086434 177.34,171.651445 C176.545299,170.411475 175.824059,169.125931 175.18,167.801445 C174.62,166.281445 173.81,165.801445 172.18,165.861445 C163.81,165.861445 155.43,165.781445 147.06,165.721445 C146.810258,165.666837 146.565939,165.58986 146.33,165.491445 C146.5,164.131445 146.74,162.771445 146.84,161.401445 C147.45,152.241445 148.09,143.071445 148.69,133.911445 L153.8,133.621445 C156.768674,133.438896 159.038022,130.902041 158.89,127.931445 L158.12,114.301445 C157.94806,111.327642 155.404515,109.052309 152.43,109.211445 L149.77,109.361445 C149.77,107.211445 149.71,105.071445 149.72,102.921445 C149.499546,99.9148851 151.719415,97.2821208 154.72,96.991445 C162.42,95.861445 170.12,94.761445 177.85,93.871445 C180.76,93.531445 182.92,92.591445 183.94,89.711445 L183.55,84.541445 C183,81.741445 182.36,78.941445 181.82,76.121445 Z M119.67,41.37 L120.52,41.19 C122.17,45.63 123.88,50.04 125.41,54.52 C125.881857,56.0037887 125.088998,57.5939358 123.62,58.11 C121.897548,58.7721493 120.137884,59.3331049 118.35,59.79 C118.82,53.29 119.25,47.29 119.67,41.37 L119.67,41.37 Z M31.31,62.37 C30.63,59.27 30.13,56.13 29.5,52.72 C31.61,52.33 33.59,51.93 35.58,51.59 L79.8,44.14 C86.22,43.06 92.64,41.94 99.06,40.87 C99.9069201,40.7119297 100.770014,40.6581963 101.63,40.71 C104.08,40.91 104.78,41.71 104.63,44.15 C104.31,49.77 103.91,55.4 103.52,61.35 C99.08,61.92 94.74,62.5 90.4,63.02 L44.08,68.55 C42.3281523,68.8934791 40.544933,69.0510192 38.76,69.02 C34.17,68.54 32.3,66.82 31.31,62.35 L31.31,62.37 Z M44.43,98.89 C50.76,98.12 57.13,97.62 63.49,97.08 C75.9366667,96.02 88.3933333,94.98 100.86,93.96 L102.99,93.8 C103.66,97.11 101.82,99.42 98.4,99.71 L59.83,102.98 C53.27,103.54 46.72,104.14 40.16,104.72 C39.24,104.8 38.33,104.86 37.37,104.93 C37.9,101.76 40.5,99.34 44.43,98.87 L44.43,98.89 Z M37.53,154.43 C37.71,146.52 37.89,138.91 38.07,131.17 C38.4735173,131.062002 38.8847231,130.98511 39.3,130.94 C60.0933333,129.933333 80.88,128.933333 101.66,127.94 C105.86,127.74 107.75,129.25 109.12,133.26 C111.6,140.53 114.24,147.74 116.95,155.36 L37.53,154.43 Z M129.91,147.51 L129.11,147.73 C127.11,142 125,136.31 123.17,130.52 C122.45,128.22 123.77,126.69 126.17,126.35 C127.62,126.15 129.08,125.99 130.53,125.83 C130.869984,125.86892 131.205073,125.942639 131.53,126.05 C130.99,133.16 130.45,140.29 129.91,147.49 L129.91,147.51 Z M131.61,98.09 C131.61,98.49 131.61,98.89 131.56,99.73 C128.31,99.8 125.21,100 122.11,99.9 C119.41,99.8 116.93,96 117.74,93.4 C118.017137,92.9340629 118.492519,92.6208271 119.03,92.55 C121.21,92.32 123.4,92.17 125.59,92.05 C129.95,91.79 131.84,93.7 131.61,98.07 L131.61,98.09 Z M409.61,131.91 C408.61,123.21 407.42,114.54 406.47,105.83 C405.88,100.49 405.62,95.1 405.16,89.74 C404.546667,82.5333333 403.906667,75.32 403.24,68.1 C402.43,59.24 401.69,50.37 400.74,41.53 C399.68,31.62 398.46,21.73 397.21,11.85 C396.74,8.16 393.84,5.95 389.75,5.2 C374.31,2.37 358.75,2.41 343.12,2.38 C341.35,2.38 339.57,1.93 337.81,2.03 C323.36,2.84 308.92,3.67 294.48,4.64 C291.104034,4.86611701 287.756342,5.40509542 284.48,6.25 C279.48,7.54 277.64,9.44 277.03,15.61 C276.03,26.18 274.63,36.72 273.56,47.28 C272.36,59.18 271.253333,71.0866667 270.24,83 C268.94,98.43 267.89,113.88 266.51,129.3 C265.51,140.69 264.26,161.07 262.79,172.41 C262.79,172.74 262.73,173 262.72,173.23 L274.24,173.23 C274.83,164.85 275.55,150.66 276.24,142.38 C276.305814,142.133384 276.399764,141.895153 276.52,141.67 C277.86,141.94 279.2,142.28 280.52,142.48 C294.71,144.48 308.9,146.59 323.12,148.48 C328.25,149.16 333.45,149.32 338.62,149.71 C341.648109,149.720496 344.111002,152.152269 344.16,155.18 C344.59,161.18 345,167.18 345.31,173.24 L376.13,173.24 C376.01,168.98 375.87,164.73 375.75,160.47 C375.67,157.68 375.55,154.89 375.57,152.09 C375.59,149.29 376.75,147.52 379.19,146.74 C385.3,144.79 391.44,142.9 397.73,140.94 C397.87,142.21 398.07,143.83 398.22,145.45 C398.51,148.54 400.22,165.51 400.91,173.24 L414.75,173.24 C413.85,164.45 410.42,139.02 409.61,131.89 L409.61,131.91 Z M306.91,126.07 L285.63,122.86 L285.47,122.04 C291.33,120.48 297.17,118.8 303.07,117.41 C305.42,116.85 306.85,118.29 307.01,120.71 C307.1,122.17 307.15,123.63 307.2,125.09 C307.131183,125.41776 307.034155,125.738956 306.91,126.05 L306.91,126.07 Z M307.26,96.15 C307.14,100.35 305.5,102.15 301.4,103.15 C293.97,105.08 286.57,107.15 278.77,109.31 C281.05,82.99 283.32,56.68 285.61,30.18 L308.75,32.47 C308.830155,32.8822316 308.876973,33.3002501 308.89,33.72 C308.356667,54.52 307.813333,75.3233333 307.26,96.13 L307.26,96.15 Z M340.48,41.24 C340.77,47.61 340.8,54 340.87,60.38 C340.996667,72.88 341.103333,85.38 341.19,97.88 C341.19,98.6 341.19,99.32 341.19,100.01 C337.84,100.44 335.68,98.43 335.64,95.01 C335.5,82.11 335.373333,69.21 335.26,56.31 C335.18,49.73 335.09,43.15 334.99,36.57 C334.99,35.65 334.99,34.73 334.99,33.77 C338.09,34.49 340.3,37.29 340.48,41.22 L340.48,41.24 Z M341.25,122.68 C341.17,127.05 339.12,128.79 334.78,128.24 L333.15,128.07 C333.32,124.82 333.35,121.71 333.69,118.63 C333.99,115.94 337.97,113.75 340.5,114.76 C340.943153,115.070464 341.216654,115.569419 341.24,116.11 C341.32,118.29 341.3,120.47 341.25,122.66 L341.25,122.68 Z M378.68,125.29 C377.162668,125.64592 375.636417,124.734593 375.23,123.23 C374.696106,121.466564 374.265377,119.673527 373.94,117.86 L392.22,120.55 C392.22,120.83 392.29,121.12 392.33,121.41 C387.75,122.71 383.26,124.09 378.68,125.29 Z M394.24,102.6 C393.85,105.04 393.05,105.67 390.59,105.35 C385,104.62 379.42,103.8 373.51,102.97 C373.28,98.49 373.02,94.12 372.83,89.76 C372.11,74.2133333 371.416667,58.6733333 370.75,43.14 C370.533882,41.3678844 370.507064,39.5777943 370.67,37.8 C371.47,33.25 373.33,31.51 377.85,30.86 C380.99,30.4 384.17,30.15 387.61,29.77 C387.85,31.9 388.1,33.91 388.28,35.92 C389.673333,50.8 391.053333,65.6833333 392.42,80.57 C393.02,87.05 393.66,93.57 394.25,100.02 C394.351714,100.873856 394.348355,101.736962 394.24,102.59 L394.24,102.6 Z"/>
</svg>
