<svg xmlns="http://www.w3.org/2000/svg" width="24" height="24" viewBox="0 0 24 24">
  <path d="M3.99492556,3.28287412 C3.99492556,3.28287412 6.75,3 12,3 C17.25,3 20.0108507,3.28323747 20.0108507,3.28323747 C21.6617123,3.40295211 23.2497627,4.81650069 23.5161108,6.45114245 C23.5161108,6.45114245 24,8.25 24,12 C24,15.75 23.5146465,17.558673 23.5146465,17.558673 C23.2304151,19.183123 21.6650443,20.6011824 20.0080289,20.7116826 C20.0080289,20.7116826 17,21 12,21 C7,21 3.98614999,20.7113203 3.98614999,20.7113203 C2.33694489,20.5946113 0.75023733,19.1834993 0.483889198,17.5488576 C0.483889198,17.5488576 0,15.75 0,12 C0,8.25 0.485353425,6.441327 0.485353425,6.441327 C0.76958488,4.81687694 2.34006134,3.39518362 3.99492556,3.28287412 Z M2.22553935,8.07567155 C2.08530562,9.13999945 2,10.4465403 2,12 C2,13.5535481 2.08504279,14.8582797 2.22481918,15.9195114 C2.304053,16.5210825 2.45785705,17.2272197 2.45785705,17.2272197 C2.5725998,17.9314232 3.38769446,18.6639678 4.17684594,18.7204323 C4.25751127,18.7281587 5.63478455,18.8276181 6.22264255,18.8583956 C7.911713,18.9468275 9.8482791,19 12,19 C14.1517381,19 16.0872178,18.9468947 17.7744677,18.8585757 C18.3616708,18.8278386 19.7367523,18.7285182 19.817205,18.7208069 C20.6068804,18.6673053 21.4182255,17.9360901 21.5445759,17.213968 C21.5445759,17.213968 21.6949068,16.5281156 21.7744607,15.9243285 C21.9146944,14.8600006 22,13.5534597 22,12 C22,10.4464519 21.9149572,9.1417203 21.7751808,8.08048855 C21.695947,7.4789175 21.5421429,6.7727803 21.5421429,6.7727803 C21.4272513,6.0676627 20.6092691,5.3318844 19.8661977,5.2779995 C19.7366461,5.26560395 18.4413803,5.16895235 17.8691421,5.13885885 C16.2208123,5.0521745 14.2616068,5 12,5 C9.7383762,5 7.78024685,5.05210725 6.13372395,5.1386783 C5.5621386,5.1687312 4.13034664,5.27828415 4.13034664,5.27828415 C3.39838694,5.3279595 2.58171142,6.06427005 2.4554241,6.786032 C2.4554241,6.786032 2.30509314,7.4718844 2.22553935,8.07567155 Z M9.50714735,9.65849755 C9.50849225,9.10358945 9.90315515,8.87290805 10.3818033,9.13944275 L14.6357748,11.5082623 C15.117489,11.7765043 15.1133557,12.2151444 14.6334096,12.4841435 L10.3679026,14.8748653 C9.8848821,15.1455875 9.49440915,14.9142825 9.49574835,14.3603013 L9.50714735,9.65849755 Z"/>
</svg>
