<svg role="img" alt="Gluten Free Icon" xmlns="http://www.w3.org/2000/svg" width="20" height="20" viewBox="0 0 20 20">
  <g fill="none" fill-rule="evenodd">
    <circle cx="10" cy="10" r="9.25" stroke="#7C7C7C" stroke-width="1.5"/>
    <path fill="#7C7C7C" d="M4.02,10.2625 C4.02,9.6491636 4.11199908,9.09908577 4.296,8.61225 C4.48000092,8.12541423 4.73299839,7.71333502 5.055,7.376 C5.37700161,7.03866498 5.75649782,6.78183421 6.1935,6.6055 C6.63050219,6.42916579 7.10199747,6.341 7.608,6.341 C7.86866797,6.341 8.11016556,6.36783307 8.3325,6.4215 C8.55483445,6.47516693 8.75799908,6.54608289 8.942,6.63425 C9.12600092,6.72241711 9.2946659,6.82399943 9.448,6.939 C9.6013341,7.05400057 9.73549943,7.17283272 9.8505,7.2955 L9.1145,8.1235 C8.92283237,7.93949908 8.7139178,7.79000058 8.48775,7.675 C8.2615822,7.55999943 7.97216843,7.5025 7.6195,7.5025 C7.28216498,7.5025 6.97741803,7.56574937 6.70525,7.69225 C6.43308197,7.81875063 6.19925098,7.9989155 6.00375,8.23275 C5.80824902,8.4665845 5.65683387,8.75216498 5.5495,9.0895 C5.44216613,9.42683502 5.3885,9.80633123 5.3885,10.228 C5.3885,11.086671 5.5820814,11.7594142 5.96925,12.24625 C6.3564186,12.7330858 6.92949621,12.9765 7.6885,12.9765 C7.90316774,12.9765 8.10633238,12.9477503 8.298,12.89025 C8.48966762,12.8327497 8.64683272,12.7503339 8.7695,12.643 L8.7695,11.0215 L7.3435,11.0215 L7.3435,9.929 L9.9655,9.929 L9.9655,13.241 C9.70483203,13.4940013 9.36366878,13.7067491 8.942,13.87925 C8.52033122,14.0517509 8.04883594,14.138 7.5275,14.138 C7.02916418,14.138 6.56533548,14.0536675 6.136,13.885 C5.70666452,13.7163325 5.33483491,13.4671683 5.0205,13.1375 C4.7061651,12.8078317 4.46083422,12.4015024 4.2845,11.9185 C4.10816579,11.4354976 4.02,10.8835031 4.02,10.2625 Z M11.633,6.479 L16.1755,6.479 L16.1755,7.606 L12.967,7.606 L12.967,9.7335 L15.704,9.7335 L15.704,10.8605 L12.967,10.8605 L12.967,14 L11.633,14 L11.633,6.479 Z"/>
  </g>
</svg>
