<svg xmlns="http://www.w3.org/2000/svg" width="26" height="27" viewBox="0 0 26 27">
    <title>Close</title>
    <path fill-rule="nonzero" d="M-3,14 L29,14 C29.5522847,14 30,13.5522847 30,13 C30,12.4477153 29.5522847,12 29,12 L-3,12 C-3.55228475,12 -4,12.4477153 -4,13 C-4,13.5522847 -3.55228475,14 -3,14 Z" transform="rotate(-45 13 13)"/>
    <path fill-rule="nonzero" d="M-3,15 L29,15 C29.5522847,15 30,14.5522847 30,14 C30,13.4477153 29.5522847,13 29,13 L-3,13 C-3.55228475,13 -4,13.4477153 -4,14 C-4,14.5522847 -3.55228475,15 -3,15 Z" transform="rotate(45 13 14)"/>
</svg>
