<svg xmlns="http://www.w3.org/2000/svg" viewBox="0 0 60 60">
  <path d="M55.846,49.632 L1.846,49.632 C0.826,49.632 0,48.805 0,47.785 L0,6.994 C0,5.974 0.826,5.148 1.846,5.148 L55.846,5.148 C56.866,5.148 57.692,5.975 57.692,6.994 C57.692,8.013 56.865,8.84 55.846,8.84 L3.691,8.84 L3.691,45.94 L54,45.94 L54,12.297 C54,11.277 54.826,10.451 55.846,10.451 C56.866,10.451 57.692,11.278 57.692,12.297 L57.692,47.785 C57.691,48.805 56.865,49.632 55.846,49.632 Z"/>
  <path d="M23.852 40.885C16.41 40.885 10.355 34.83 10.355 27.387 10.355 19.947 16.41 13.893 23.852 13.893 31.292 13.893 37.346 19.947 37.346 27.387 37.346 34.83 31.292 40.885 23.852 40.885zM23.852 17.585C18.446 17.585 14.046 21.982 14.046 27.387 14.046 32.794 18.445 37.193 23.852 37.193 29.257 37.193 33.655 32.795 33.655 27.387 33.654 21.982 29.257 17.585 23.852 17.585zM47.118 16.855L41.525 16.855C40.505 16.855 39.679 16.028 39.679 15.009 39.679 13.99 40.505 13.163 41.525 13.163L47.118 13.163C48.138 13.163 48.964 13.99 48.964 15.009 48.964 16.028 48.138 16.855 47.118 16.855zM12.889 3.692L7.295 3.692C6.275 3.692 5.449 2.865 5.449 1.846 5.449.827 6.275 0 7.295 0L12.889 0C13.909 0 14.735.827 14.735 1.846 14.735 2.865 13.908 3.692 12.889 3.692z"/>
</svg>
