<svg xmlns="http://www.w3.org/2000/svg" width="24" height="24" viewBox="0 0 24 24">
  <path d="M20.4058928,21.6 C21.0658018,21.6 21.6,21.0656891 21.6,20.4058928 L21.6,3.59410715 C21.6,2.93419816 21.0656891,2.4 20.4058928,2.4 L3.59410715,2.4 C2.93419816,2.4 2.4,2.93431084 2.4,3.59410715 L2.4,20.4058928 C2.4,21.0658018 2.93431084,21.6 3.59410715,21.6 L12,21.6 L12,14.4 L10.799414,14.4 C10.1366723,14.4 9.59941404,13.8627417 9.59941404,13.2 C9.59941404,12.5372583 10.1366723,12 10.799414,12 L12,12 C12,9.72382644 12.2569976,8.28927312 13.3246433,7.0943343 C14.3803493,5.91275868 15.6140315,5.4 16.8,5.4 C17.4627417,5.4 18,5.9372583 18,6.6 C18,7.2627417 17.4627417,7.8 16.8,7.8 C16.2754579,7.8 15.6981892,8.03993172 15.114346,8.69338542 C14.5829743,9.28811142 14.4,10.3094684 14.4,12 L16.8,12 C17.4627417,12 18,12.5372583 18,13.2 C18,13.8627417 17.4627417,14.4 16.8,14.4 L14.4,14.4 L14.4,21.6 L20.4058928,21.6 Z M0,20.4058928 L0,3.59410715 C0,1.60894074 1.60860143,0 3.59410715,0 L20.4058928,0 C22.3910593,0 24,1.60860143 24,3.59410715 L24,20.4058928 C24,22.3910593 22.3913986,24 20.4058928,24 L3.59410715,24 C1.60894074,24 0,22.3913986 0,20.4058928 Z"/>
</svg>
