<svg xmlns="http://www.w3.org/2000/svg" width="195" height="44" viewBox="0 0 195 44">
  <title>Scroll</title>
  <path fill="#fff" d="M97.5,0 C72.9775391,0 58.3623047,11.0751953 44.4863281,24.6923828 C35.0513127,33.9514338 20.2225366,40.3873062 0,44 L195,44 C175.063802,40.546875 160.134766,34.1110026 150.212891,24.6923828 C135.89723,11.1028377 122.022461,0 97.5,0 Z"/>
  <path fill="#1a1f23" fill-rule="nonzero" d="M74.058 37.144C73.3939967 37.144 72.7520031 37.0540009 72.132 36.874 71.5119969 36.6939991 71.0140019 36.4600014 70.638 36.172L71.298 34.708C71.6580018 34.9720013 72.0859975 35.1839992 72.582 35.344 73.0780025 35.5040008 73.5739975 35.584 74.07 35.584 74.6220028 35.584 75.0299987 35.5020008 75.294 35.338 75.5580013 35.1739992 75.69 34.9560014 75.69 34.684 75.69 34.483999 75.6120008 34.3180007 75.456 34.186 75.2999992 34.0539993 75.1000012 33.9480004 74.856 33.868 74.6119988 33.7879996 74.2820021 33.7000005 73.866 33.604 73.2259968 33.4519992 72.702002 33.3000008 72.294 33.148 71.885998 32.9959992 71.5360015 32.7520017 71.244 32.416 70.9519985 32.0799983 70.806 31.6320028 70.806 31.072 70.806 30.5839976 70.9379987 30.142002 71.202 29.746 71.4660013 29.349998 71.8639973 29.0360012 72.396 28.804 72.9280027 28.5719988 73.5779962 28.456 74.346 28.456 74.8820027 28.456 75.4059974 28.5199994 75.918 28.648 76.4300026 28.7760006 76.8779981 28.9599988 77.262 29.2L76.662 30.676C75.8859961 30.2359978 75.1100039 30.016 74.334 30.016 73.7899973 30.016 73.3880013 30.1039991 73.128 30.28 72.8679987 30.4560009 72.738 30.6879986 72.738 30.976 72.738 31.2640014 72.8879985 31.4779993 73.188 31.618 73.4880015 31.7580007 73.9459969 31.8959993 74.562 32.032 75.2020032 32.1840008 75.725998 32.3359992 76.134 32.488 76.542002 32.6400008 76.8919985 32.8799984 77.184 33.208 77.4760015 33.5360016 77.622 33.9799972 77.622 34.54 77.622 35.0200024 77.4880013 35.457998 77.22 35.854 76.9519987 36.250002 76.5500027 36.5639988 76.014 36.796 75.4779973 37.0280012 74.8260038 37.144 74.058 37.144zM84.224 37.144C83.3679957 37.144 82.5940035 36.9580019 81.902 36.586 81.2099965 36.2139981 80.666002 35.6980033 80.27 35.038 79.873998 34.3779967 79.676 33.6320042 79.676 32.8 79.676 31.9679958 79.873998 31.2220033 80.27 30.562 80.666002 29.9019967 81.2099965 29.3860019 81.902 29.014 82.5940035 28.6419981 83.3719957 28.456 84.236 28.456 84.9640036 28.456 85.6219971 28.5839987 86.21 28.84 86.7980029 29.0960013 87.291998 29.4639976 87.692 29.944L86.444 31.096C85.8759972 30.4399967 85.1720042 30.112 84.332 30.112 83.8119974 30.112 83.348002 30.2259989 82.94 30.454 82.531998 30.6820011 82.2140011 30.999998 81.986 31.408 81.7579989 31.816002 81.644 32.2799974 81.644 32.8 81.644 33.3200026 81.7579989 33.783998 81.986 34.192 82.2140011 34.600002 82.531998 34.9179989 82.94 35.146 83.348002 35.3740011 83.8119974 35.488 84.332 35.488 85.1720042 35.488 85.8759972 35.1560033 86.444 34.492L87.692 35.644C87.291998 36.1320024 86.796003 36.5039987 86.204 36.76 85.611997 37.0160013 84.9520036 37.144 84.224 37.144zM95.602 37L93.982 34.66 92.194 34.66 92.194 37 90.25 37 90.25 28.6 93.886 28.6C94.6300037 28.6 95.2759973 28.7239988 95.824 28.972 96.3720027 29.2200012 96.7939985 29.5719977 97.09 30.028 97.3860015 30.4840023 97.534 31.0239969 97.534 31.648 97.534 32.2720031 97.3840015 32.8099977 97.084 33.262 96.7839985 33.7140023 96.3580028 34.0599988 95.806 34.3L97.69 37 95.602 37zM95.566 31.648C95.566 31.1759976 95.4140015 30.8140013 95.11 30.562 94.8059985 30.3099987 94.3620029 30.184 93.778 30.184L92.194 30.184 92.194 33.112 93.778 33.112C94.3620029 33.112 94.8059985 32.9840013 95.11 32.728 95.4140015 32.4719987 95.566 32.1120023 95.566 31.648zM104.388 37.144C103.515996 37.144 102.730004 36.9560019 102.03 36.58 101.329997 36.2039981 100.782002 35.6860033 100.386 35.026 99.989998 34.3659967 99.792 33.6240041 99.792 32.8 99.792 31.9759959 99.989998 31.2340033 100.386 30.574 100.782002 29.9139967 101.329997 29.3960019 102.03 29.02 102.730004 28.6439981 103.515996 28.456 104.388 28.456 105.260004 28.456 106.043997 28.6439981 106.74 29.02 107.436003 29.3960019 107.983998 29.9139967 108.384 30.574 108.784002 31.2340033 108.984 31.9759959 108.984 32.8 108.984 33.6240041 108.784002 34.3659967 108.384 35.026 107.983998 35.6860033 107.436003 36.2039981 106.74 36.58 106.043997 36.9560019 105.260004 37.144 104.388 37.144zM104.388 35.488C104.884002 35.488 105.331998 35.3740011 105.732 35.146 106.132002 34.9179989 106.445999 34.600002 106.674 34.192 106.902001 33.783998 107.016 33.3200026 107.016 32.8 107.016 32.2799974 106.902001 31.816002 106.674 31.408 106.445999 30.999998 106.132002 30.6820011 105.732 30.454 105.331998 30.2259989 104.884002 30.112 104.388 30.112 103.891998 30.112 103.444002 30.2259989 103.044 30.454 102.643998 30.6820011 102.330001 30.999998 102.102 31.408 101.873999 31.816002 101.76 32.2799974 101.76 32.8 101.76 33.3200026 101.873999 33.783998 102.102 34.192 102.330001 34.600002 102.643998 34.9179989 103.044 35.146 103.444002 35.3740011 103.891998 35.488 104.388 35.488zM111.698 28.6L113.642 28.6 113.642 35.416 117.854 35.416 117.854 37 111.698 37 111.698 28.6zM120.196 28.6L122.14 28.6 122.14 35.416 126.352 35.416 126.352 37 120.196 37 120.196 28.6zM92.7431847 12.3309136C92.3736585 11.9204641 91.7413632 11.8872891 91.3309136 12.2568153 90.9204641 12.6263415 90.8872891 13.2586368 91.2568153 13.6690864L97.192704 20.2623481C97.5797758 20.6922863 98.2498137 20.7050722 98.6530061 20.2902141L105.060867 13.6969523C105.445784 13.3008993 105.436755 12.6677987 105.040702 12.2828825 104.644649 11.8979664 104.011549 11.9069946 103.626633 12.3030477L97.9638167 18.1297073 92.7431847 12.3309136z"/>
</svg>
